<?xml version="1.0" encoding="UTF-8" standalone="no"?>
<!DOCTYPE svg PUBLIC "-//W3C//DTD SVG 1.1//EN"
 "http://www.w3.org/Graphics/SVG/1.1/DTD/svg11.dtd">
<!-- Generated by graphviz version 7.0.6 (20230106.0513)
 -->
<!-- Title: src/html2md.cpp Pages: 1 -->
<svg width="512pt" height="137pt"
 viewBox="0.00 0.00 512.00 137.00" xmlns="http://www.w3.org/2000/svg" xmlns:xlink="http://www.w3.org/1999/xlink">
<g id="graph0" class="graph" transform="scale(1 1) rotate(0) translate(4 133)">
<title>src/html2md.cpp</title>
<!-- Node1 -->
<g id="node1" class="node">
<title>Node1</title>
<g id="a_node1"><a xlink:title=" ">
<polygon fill="#999999" stroke="#666666" points="308,-129 219,-129 219,-110 308,-110 308,-129"/>
<text text-anchor="middle" x="263.5" y="-117" font-family="Helvetica,sans-Serif" font-size="10.00">src/html2md.cpp</text>
</a>
</g>
</g>
<!-- Node2 -->
<g id="node2" class="node">
<title>Node2</title>
<g id="a_node2"><a xlink:href="html2md_8h.html" target="_top" xlink:title=" ">
<polygon fill="white" stroke="#666666" points="117.5,-74 55.5,-74 55.5,-55 117.5,-55 117.5,-74"/>
<text text-anchor="middle" x="86.5" y="-62" font-family="Helvetica,sans-Serif" font-size="10.00">html2md.h</text>
</a>
</g>
</g>
<!-- Node1&#45;&gt;Node2 -->
<g id="edge1" class="edge">
<title>Node1&#45;&gt;Node2</title>
<path fill="none" stroke="#63b8ff" d="M233.47,-109.51C204.27,-100.76 159.69,-87.42 127.29,-77.71"/>
<polygon fill="#63b8ff" stroke="#63b8ff" points="128.41,-74.4 117.83,-74.88 126.4,-81.1 128.41,-74.4"/>
</g>
<!-- Node4 -->
<g id="node4" class="node">
<title>Node4</title>
<g id="a_node4"><a xlink:title=" ">
<polygon fill="#e0e0e0" stroke="#999999" points="51,-19 0,-19 0,0 51,0 51,-19"/>
<text text-anchor="middle" x="25.5" y="-7" font-family="Helvetica,sans-Serif" font-size="10.00">memory</text>
</a>
</g>
</g>
<!-- Node1&#45;&gt;Node4 -->
<g id="edge8" class="edge">
<title>Node1&#45;&gt;Node4</title>
<path fill="none" stroke="#63b8ff" d="M218.67,-114.57C162.77,-108.8 71.5,-96.23 46.5,-74 34.15,-63.02 29.04,-44.62 26.94,-30.45"/>
<polygon fill="#63b8ff" stroke="#63b8ff" points="30.46,-30.45 25.92,-20.88 23.5,-31.19 30.46,-30.45"/>
</g>
<!-- Node7 -->
<g id="node7" class="node">
<title>Node7</title>
<g id="a_node7"><a xlink:title=" ">
<polygon fill="#e0e0e0" stroke="#999999" points="181.5,-74 135.5,-74 135.5,-55 181.5,-55 181.5,-74"/>
<text text-anchor="middle" x="158.5" y="-62" font-family="Helvetica,sans-Serif" font-size="10.00">cstring</text>
</a>
</g>
</g>
<!-- Node1&#45;&gt;Node7 -->
<g id="edge6" class="edge">
<title>Node1&#45;&gt;Node7</title>
<path fill="none" stroke="#63b8ff" d="M245.69,-109.51C229.37,-101.27 204.97,-88.96 186.13,-79.45"/>
<polygon fill="#63b8ff" stroke="#63b8ff" points="187.9,-76.42 177.4,-75.04 184.75,-82.67 187.9,-76.42"/>
</g>
<!-- Node8 -->
<g id="node8" class="node">
<title>Node8</title>
<g id="a_node8"><a xlink:title=" ">
<polygon fill="#e0e0e0" stroke="#999999" points="259,-74 200,-74 200,-55 259,-55 259,-74"/>
<text text-anchor="middle" x="229.5" y="-62" font-family="Helvetica,sans-Serif" font-size="10.00">functional</text>
</a>
</g>
</g>
<!-- Node1&#45;&gt;Node8 -->
<g id="edge7" class="edge">
<title>Node1&#45;&gt;Node8</title>
<path fill="none" stroke="#63b8ff" d="M257.89,-109.75C253.38,-102.73 246.91,-92.64 241.29,-83.87"/>
<polygon fill="#63b8ff" stroke="#63b8ff" points="244.4,-82.24 236.05,-75.72 238.51,-86.02 244.4,-82.24"/>
</g>
<!-- Node9 -->
<g id="node9" class="node">
<title>Node9</title>
<g id="a_node9"><a xlink:title=" ">
<polygon fill="#e0e0e0" stroke="#999999" points="317.5,-74 277.5,-74 277.5,-55 317.5,-55 317.5,-74"/>
<text text-anchor="middle" x="297.5" y="-62" font-family="Helvetica,sans-Serif" font-size="10.00">regex</text>
</a>
</g>
</g>
<!-- Node1&#45;&gt;Node9 -->
<g id="edge9" class="edge">
<title>Node1&#45;&gt;Node9</title>
<path fill="none" stroke="#63b8ff" d="M269.11,-109.75C273.62,-102.73 280.09,-92.64 285.71,-83.87"/>
<polygon fill="#63b8ff" stroke="#63b8ff" points="288.49,-86.02 290.95,-75.72 282.6,-82.24 288.49,-86.02"/>
</g>
<!-- Node10 -->
<g id="node10" class="node">
<title>Node10</title>
<g id="a_node10"><a xlink:title=" ">
<polygon fill="#e0e0e0" stroke="#999999" points="387.5,-74 335.5,-74 335.5,-55 387.5,-55 387.5,-74"/>
<text text-anchor="middle" x="361.5" y="-62" font-family="Helvetica,sans-Serif" font-size="10.00">sstream</text>
</a>
</g>
</g>
<!-- Node1&#45;&gt;Node10 -->
<g id="edge10" class="edge">
<title>Node1&#45;&gt;Node10</title>
<path fill="none" stroke="#63b8ff" d="M280.12,-109.51C295.28,-101.31 317.92,-89.07 335.47,-79.58"/>
<polygon fill="#63b8ff" stroke="#63b8ff" points="336.66,-82.91 343.79,-75.08 333.33,-76.76 336.66,-82.91"/>
</g>
<!-- Node11 -->
<g id="node11" class="node">
<title>Node11</title>
<g id="a_node11"><a xlink:title=" ">
<polygon fill="#e0e0e0" stroke="#999999" points="447,-74 406,-74 406,-55 447,-55 447,-74"/>
<text text-anchor="middle" x="426.5" y="-62" font-family="Helvetica,sans-Serif" font-size="10.00">stack</text>
</a>
</g>
</g>
<!-- Node1&#45;&gt;Node11 -->
<g id="edge11" class="edge">
<title>Node1&#45;&gt;Node11</title>
<path fill="none" stroke="#63b8ff" d="M291.15,-109.51C319.98,-100.13 365.09,-85.47 395.21,-75.67"/>
<polygon fill="#63b8ff" stroke="#63b8ff" points="396.09,-79.07 404.52,-72.65 393.93,-72.41 396.09,-79.07"/>
</g>
<!-- Node12 -->
<g id="node12" class="node">
<title>Node12</title>
<g id="a_node12"><a xlink:title=" ">
<polygon fill="#e0e0e0" stroke="#999999" points="504,-74 465,-74 465,-55 504,-55 504,-74"/>
<text text-anchor="middle" x="484.5" y="-62" font-family="Helvetica,sans-Serif" font-size="10.00">utility</text>
</a>
</g>
</g>
<!-- Node1&#45;&gt;Node12 -->
<g id="edge12" class="edge">
<title>Node1&#45;&gt;Node12</title>
<path fill="none" stroke="#63b8ff" d="M306.25,-109.52C343.12,-101.58 398.02,-89.29 453.86,-74.58"/>
<polygon fill="#63b8ff" stroke="#63b8ff" points="454.44,-78.05 463.2,-72.09 452.64,-71.28 454.44,-78.05"/>
</g>
<!-- Node3 -->
<g id="node3" class="node">
<title>Node3</title>
<g id="a_node3"><a xlink:title=" ">
<polygon fill="#e0e0e0" stroke="#999999" points="104,-19 69,-19 69,0 104,0 104,-19"/>
<text text-anchor="middle" x="86.5" y="-7" font-family="Helvetica,sans-Serif" font-size="10.00">map</text>
</a>
</g>
</g>
<!-- Node2&#45;&gt;Node3 -->
<g id="edge2" class="edge">
<title>Node2&#45;&gt;Node3</title>
<path fill="none" stroke="#63b8ff" d="M86.5,-54.75C86.5,-48.27 86.5,-39.16 86.5,-30.9"/>
<polygon fill="#63b8ff" stroke="#63b8ff" points="90,-30.96 86.5,-20.96 83,-30.96 90,-30.96"/>
</g>
<!-- Node2&#45;&gt;Node4 -->
<g id="edge3" class="edge">
<title>Node2&#45;&gt;Node4</title>
<path fill="none" stroke="#63b8ff" d="M76.15,-54.51C67.42,-46.93 54.71,-35.88 44.2,-26.75"/>
<polygon fill="#63b8ff" stroke="#63b8ff" points="46.68,-24.27 36.84,-20.35 42.09,-29.55 46.68,-24.27"/>
</g>
<!-- Node5 -->
<g id="node5" class="node">
<title>Node5</title>
<g id="a_node5"><a xlink:title=" ">
<polygon fill="#e0e0e0" stroke="#999999" points="163,-19 122,-19 122,0 163,0 163,-19"/>
<text text-anchor="middle" x="142.5" y="-7" font-family="Helvetica,sans-Serif" font-size="10.00">string</text>
</a>
</g>
</g>
<!-- Node2&#45;&gt;Node5 -->
<g id="edge4" class="edge">
<title>Node2&#45;&gt;Node5</title>
<path fill="none" stroke="#63b8ff" d="M96,-54.51C103.93,-47 115.45,-36.1 125.04,-27.03"/>
<polygon fill="#63b8ff" stroke="#63b8ff" points="127.18,-29.81 132.04,-20.4 122.37,-24.73 127.18,-29.81"/>
</g>
<!-- Node6 -->
<g id="node6" class="node">
<title>Node6</title>
<g id="a_node6"><a xlink:title=" ">
<polygon fill="#e0e0e0" stroke="#999999" points="225.5,-19 181.5,-19 181.5,0 225.5,0 225.5,-19"/>
<text text-anchor="middle" x="203.5" y="-7" font-family="Helvetica,sans-Serif" font-size="10.00">vector</text>
</a>
</g>
</g>
<!-- Node2&#45;&gt;Node6 -->
<g id="edge5" class="edge">
<title>Node2&#45;&gt;Node6</title>
<path fill="none" stroke="#63b8ff" d="M106.35,-54.51C124.78,-46.16 152.48,-33.61 173.59,-24.05"/>
<polygon fill="#63b8ff" stroke="#63b8ff" points="174.9,-27.3 182.57,-19.98 172.01,-20.92 174.9,-27.3"/>
</g>
</g>
</svg>
