<?xml version="1.0" encoding="UTF-8" standalone="no"?>
<!DOCTYPE svg PUBLIC "-//W3C//DTD SVG 1.1//EN"
 "http://www.w3.org/Graphics/SVG/1.1/DTD/svg11.dtd">
<!-- Generated by graphviz version 8.1.0 (20230707.0739)
 -->
<!-- Title: src/html2md.cpp Pages: 1 -->
<svg width="589pt" height="138pt"
 viewBox="0.00 0.00 588.50 137.75" xmlns="http://www.w3.org/2000/svg" xmlns:xlink="http://www.w3.org/1999/xlink">
<g id="graph0" class="graph" transform="scale(1 1) rotate(0) translate(4 133.75)">
<title>src/html2md.cpp</title>
<!-- Node1 -->
<g id="Node000001" class="node">
<title>Node1</title>
<g id="a_Node000001"><a xlink:title=" ">
<polygon fill="#999999" stroke="#666666" points="376.25,-129.75 288.25,-129.75 288.25,-110.5 376.25,-110.5 376.25,-129.75"/>
<text text-anchor="middle" x="332.25" y="-116.25" font-family="Helvetica,sans-Serif" font-size="10.00">src/html2md.cpp</text>
</a>
</g>
</g>
<!-- Node2 -->
<g id="Node000002" class="node">
<title>Node2</title>
<g id="a_Node000002"><a xlink:href="html2md_8h.html" target="_top" xlink:title=" ">
<polygon fill="white" stroke="#666666" points="193.75,-74.5 132.75,-74.5 132.75,-55.25 193.75,-55.25 193.75,-74.5"/>
<text text-anchor="middle" x="163.25" y="-61" font-family="Helvetica,sans-Serif" font-size="10.00">html2md.h</text>
</a>
</g>
</g>
<!-- Node1&#45;&gt;Node2 -->
<g id="edge1_Node000001_Node000002" class="edge">
<title>Node1&#45;&gt;Node2</title>
<g id="a_edge1_Node000001_Node000002"><a xlink:title=" ">
<path fill="none" stroke="#63b8ff" d="M303.58,-110.09C275.78,-101.33 233.39,-87.98 202.47,-78.23"/>
<polygon fill="#63b8ff" stroke="#63b8ff" points="203.65,-74.62 193.06,-74.95 201.55,-81.3 203.65,-74.62"/>
</a>
</g>
</g>
<!-- Node4 -->
<g id="Node000004" class="node">
<title>Node4</title>
<g id="a_Node000004"><a xlink:title=" ">
<polygon fill="#e0e0e0" stroke="#999999" points="50.5,-19.25 0,-19.25 0,0 50.5,0 50.5,-19.25"/>
<text text-anchor="middle" x="25.25" y="-5.75" font-family="Helvetica,sans-Serif" font-size="10.00">memory</text>
</a>
</g>
</g>
<!-- Node1&#45;&gt;Node4 -->
<g id="edge11_Node000001_Node000004" class="edge">
<title>Node1&#45;&gt;Node4</title>
<g id="a_edge11_Node000001_Node000004"><a xlink:title=" ">
<path fill="none" stroke="#63b8ff" d="M287.85,-114.32C244.77,-108.57 178.17,-96.8 124.25,-74.5 94.5,-62.19 63.9,-40.87 44.75,-26.27"/>
<polygon fill="#63b8ff" stroke="#63b8ff" points="47.13,-22.91 37.08,-19.53 42.83,-28.43 47.13,-22.91"/>
</a>
</g>
</g>
<!-- Node8 -->
<g id="Node000008" class="node">
<title>Node8</title>
<g id="a_Node000008"><a xlink:href="table_8h.html" target="_top" xlink:title=" ">
<polygon fill="white" stroke="#666666" points="256.5,-74.5 212,-74.5 212,-55.25 256.5,-55.25 256.5,-74.5"/>
<text text-anchor="middle" x="234.25" y="-61" font-family="Helvetica,sans-Serif" font-size="10.00">table.h</text>
</a>
</g>
</g>
<!-- Node1&#45;&gt;Node8 -->
<g id="edge7_Node000001_Node000008" class="edge">
<title>Node1&#45;&gt;Node8</title>
<g id="a_edge7_Node000001_Node000008"><a xlink:title=" ">
<path fill="none" stroke="#63b8ff" d="M315.63,-110.09C300.56,-101.91 278.11,-89.71 260.6,-80.19"/>
<polygon fill="#63b8ff" stroke="#63b8ff" points="262.41,-76.65 251.96,-74.95 259.07,-82.8 262.41,-76.65"/>
</a>
</g>
</g>
<!-- Node9 -->
<g id="Node000009" class="node">
<title>Node9</title>
<g id="a_Node000009"><a xlink:title=" ">
<polygon fill="#e0e0e0" stroke="#999999" points="319.88,-74.5 274.62,-74.5 274.62,-55.25 319.88,-55.25 319.88,-74.5"/>
<text text-anchor="middle" x="297.25" y="-61" font-family="Helvetica,sans-Serif" font-size="10.00">cstring</text>
</a>
</g>
</g>
<!-- Node1&#45;&gt;Node9 -->
<g id="edge9_Node000001_Node000009" class="edge">
<title>Node1&#45;&gt;Node9</title>
<g id="a_edge9_Node000001_Node000009"><a xlink:title=" ">
<path fill="none" stroke="#63b8ff" d="M326.47,-110.33C321.79,-103.21 315.03,-92.93 309.19,-84.05"/>
<polygon fill="#63b8ff" stroke="#63b8ff" points="311.57,-82.29 303.16,-75.86 305.72,-86.14 311.57,-82.29"/>
</a>
</g>
</g>
<!-- Node10 -->
<g id="Node000010" class="node">
<title>Node10</title>
<g id="a_Node000010"><a xlink:title=" ">
<polygon fill="#e0e0e0" stroke="#999999" points="396.25,-74.5 338.25,-74.5 338.25,-55.25 396.25,-55.25 396.25,-74.5"/>
<text text-anchor="middle" x="367.25" y="-61" font-family="Helvetica,sans-Serif" font-size="10.00">functional</text>
</a>
</g>
</g>
<!-- Node1&#45;&gt;Node10 -->
<g id="edge10_Node000001_Node000010" class="edge">
<title>Node1&#45;&gt;Node10</title>
<g id="a_edge10_Node000001_Node000010"><a xlink:title=" ">
<path fill="none" stroke="#63b8ff" d="M338.03,-110.33C342.71,-103.21 349.47,-92.93 355.31,-84.05"/>
<polygon fill="#63b8ff" stroke="#63b8ff" points="358.78,-86.14 361.34,-75.86 352.93,-82.29 358.78,-86.14"/>
</a>
</g>
</g>
<!-- Node11 -->
<g id="Node000011" class="node">
<title>Node11</title>
<g id="a_Node000011"><a xlink:title=" ">
<polygon fill="#e0e0e0" stroke="#999999" points="465.88,-74.5 414.62,-74.5 414.62,-55.25 465.88,-55.25 465.88,-74.5"/>
<text text-anchor="middle" x="440.25" y="-61" font-family="Helvetica,sans-Serif" font-size="10.00">sstream</text>
</a>
</g>
</g>
<!-- Node1&#45;&gt;Node11 -->
<g id="edge12_Node000001_Node000011" class="edge">
<title>Node1&#45;&gt;Node11</title>
<g id="a_edge12_Node000001_Node000011"><a xlink:title=" ">
<path fill="none" stroke="#63b8ff" d="M350.57,-110.09C367.41,-101.79 392.61,-89.36 412.02,-79.79"/>
<polygon fill="#63b8ff" stroke="#63b8ff" points="413.42,-82.51 420.84,-74.95 410.32,-76.24 413.42,-82.51"/>
</a>
</g>
</g>
<!-- Node12 -->
<g id="Node000012" class="node">
<title>Node12</title>
<g id="a_Node000012"><a xlink:title=" ">
<polygon fill="#e0e0e0" stroke="#999999" points="524.25,-74.5 484.25,-74.5 484.25,-55.25 524.25,-55.25 524.25,-74.5"/>
<text text-anchor="middle" x="504.25" y="-61" font-family="Helvetica,sans-Serif" font-size="10.00">stack</text>
</a>
</g>
</g>
<!-- Node1&#45;&gt;Node12 -->
<g id="edge13_Node000001_Node000012" class="edge">
<title>Node1&#45;&gt;Node12</title>
<g id="a_edge13_Node000001_Node000012"><a xlink:title=" ">
<path fill="none" stroke="#63b8ff" d="M361.43,-110.09C392.55,-100.46 441.64,-85.26 473.39,-75.43"/>
<polygon fill="#63b8ff" stroke="#63b8ff" points="474.33,-78.49 482.84,-72.19 472.25,-71.81 474.33,-78.49"/>
</a>
</g>
</g>
<!-- Node13 -->
<g id="Node000013" class="node">
<title>Node13</title>
<g id="a_Node000013"><a xlink:title=" ">
<polygon fill="#e0e0e0" stroke="#999999" points="580.5,-74.5 542,-74.5 542,-55.25 580.5,-55.25 580.5,-74.5"/>
<text text-anchor="middle" x="561.25" y="-61" font-family="Helvetica,sans-Serif" font-size="10.00">utility</text>
</a>
</g>
</g>
<!-- Node1&#45;&gt;Node13 -->
<g id="edge14_Node000001_Node000013" class="edge">
<title>Node1&#45;&gt;Node13</title>
<g id="a_edge14_Node000001_Node000013"><a xlink:title=" ">
<path fill="none" stroke="#63b8ff" d="M376.41,-110.38C414.98,-102.51 472.69,-90.17 531.18,-74.89"/>
<polygon fill="#63b8ff" stroke="#63b8ff" points="531.95,-78.05 540.73,-72.11 530.16,-71.28 531.95,-78.05"/>
</a>
</g>
</g>
<!-- Node3 -->
<g id="Node000003" class="node">
<title>Node3</title>
<g id="a_Node000003"><a xlink:title=" ">
<polygon fill="#e0e0e0" stroke="#999999" points="103.62,-19.25 68.88,-19.25 68.88,0 103.62,0 103.62,-19.25"/>
<text text-anchor="middle" x="86.25" y="-5.75" font-family="Helvetica,sans-Serif" font-size="10.00">map</text>
</a>
</g>
</g>
<!-- Node2&#45;&gt;Node3 -->
<g id="edge2_Node000002_Node000003" class="edge">
<title>Node2&#45;&gt;Node3</title>
<g id="a_edge2_Node000002_Node000003"><a xlink:title=" ">
<path fill="none" stroke="#63b8ff" d="M150.19,-54.84C138.68,-46.89 121.69,-35.14 108.12,-25.75"/>
<polygon fill="#63b8ff" stroke="#63b8ff" points="110.59,-22.51 100.38,-19.7 106.61,-28.27 110.59,-22.51"/>
</a>
</g>
</g>
<!-- Node2&#45;&gt;Node4 -->
<g id="edge3_Node000002_Node000004" class="edge">
<title>Node2&#45;&gt;Node4</title>
<g id="a_edge3_Node000002_Node000004"><a xlink:title=" ">
<path fill="none" stroke="#63b8ff" d="M139.84,-54.84C117.64,-46.27 84.03,-33.31 58.95,-23.63"/>
<polygon fill="#63b8ff" stroke="#63b8ff" points="60.36,-20.04 49.77,-19.7 57.84,-26.57 60.36,-20.04"/>
</a>
</g>
</g>
<!-- Node5 -->
<g id="Node000005" class="node">
<title>Node5</title>
<g id="a_Node000005"><a xlink:title=" ">
<polygon fill="#e0e0e0" stroke="#999999" points="324.25,-19.25 284.25,-19.25 284.25,0 324.25,0 324.25,-19.25"/>
<text text-anchor="middle" x="304.25" y="-5.75" font-family="Helvetica,sans-Serif" font-size="10.00">string</text>
</a>
</g>
</g>
<!-- Node2&#45;&gt;Node5 -->
<g id="edge4_Node000002_Node000005" class="edge">
<title>Node2&#45;&gt;Node5</title>
<g id="a_edge4_Node000002_Node000005"><a xlink:title=" ">
<path fill="none" stroke="#63b8ff" d="M187.17,-54.84C211.06,-45.82 247.88,-31.92 273.83,-22.11"/>
<polygon fill="#63b8ff" stroke="#63b8ff" points="274.76,-25.12 282.88,-18.32 272.29,-18.58 274.76,-25.12"/>
</a>
</g>
</g>
<!-- Node6 -->
<g id="Node000006" class="node">
<title>Node6</title>
<g id="a_Node000006"><a xlink:title=" ">
<polygon fill="#e0e0e0" stroke="#999999" points="204.62,-19.25 121.88,-19.25 121.88,0 204.62,0 204.62,-19.25"/>
<text text-anchor="middle" x="163.25" y="-5.75" font-family="Helvetica,sans-Serif" font-size="10.00">unordered_map</text>
</a>
</g>
</g>
<!-- Node2&#45;&gt;Node6 -->
<g id="edge5_Node000002_Node000006" class="edge">
<title>Node2&#45;&gt;Node6</title>
<g id="a_edge5_Node000002_Node000006"><a xlink:title=" ">
<path fill="none" stroke="#63b8ff" d="M163.25,-55.08C163.25,-48.42 163.25,-38.99 163.25,-30.53"/>
<polygon fill="#63b8ff" stroke="#63b8ff" points="166.75,-30.61 163.25,-20.61 159.75,-30.61 166.75,-30.61"/>
</a>
</g>
</g>
<!-- Node7 -->
<g id="Node000007" class="node">
<title>Node7</title>
<g id="a_Node000007"><a xlink:title=" ">
<polygon fill="#e0e0e0" stroke="#999999" points="265.75,-19.25 222.75,-19.25 222.75,0 265.75,0 265.75,-19.25"/>
<text text-anchor="middle" x="244.25" y="-5.75" font-family="Helvetica,sans-Serif" font-size="10.00">vector</text>
</a>
</g>
</g>
<!-- Node2&#45;&gt;Node7 -->
<g id="edge6_Node000002_Node000007" class="edge">
<title>Node2&#45;&gt;Node7</title>
<g id="a_edge6_Node000002_Node000007"><a xlink:title=" ">
<path fill="none" stroke="#63b8ff" d="M176.99,-54.84C189.21,-46.81 207.31,-34.91 221.66,-25.48"/>
<polygon fill="#63b8ff" stroke="#63b8ff" points="223.01,-28.12 229.44,-19.7 219.16,-22.27 223.01,-28.12"/>
</a>
</g>
</g>
<!-- Node8&#45;&gt;Node5 -->
<g id="edge8_Node000008_Node000005" class="edge">
<title>Node8&#45;&gt;Node5</title>
<g id="a_edge8_Node000008_Node000005"><a xlink:title=" ">
<path fill="none" stroke="#63b8ff" d="M246.12,-54.84C256.44,-46.99 271.62,-35.45 283.88,-26.12"/>
<polygon fill="#63b8ff" stroke="#63b8ff" points="285.71,-28.36 291.55,-19.52 281.47,-22.79 285.71,-28.36"/>
</a>
</g>
</g>
</g>
</svg>
