<?xml version="1.0" encoding="UTF-8" standalone="no"?>
<!DOCTYPE svg PUBLIC "-//W3C//DTD SVG 1.1//EN"
 "http://www.w3.org/Graphics/SVG/1.1/DTD/svg11.dtd">
<!-- Generated by graphviz version 8.1.0 (20230707.0739)
 -->
<!-- Title: src/html2md.cpp Pages: 1 -->
<svg width="533pt" height="138pt"
 viewBox="0.00 0.00 532.50 137.75" xmlns="http://www.w3.org/2000/svg" xmlns:xlink="http://www.w3.org/1999/xlink">
<g id="graph0" class="graph" transform="scale(1 1) rotate(0) translate(4 133.75)">
<title>src/html2md.cpp</title>
<!-- Node1 -->
<g id="Node000001" class="node">
<title>Node1</title>
<g id="a_Node000001"><a xlink:title=" ">
<polygon fill="#999999" stroke="#666666" points="331.25,-129.75 243.25,-129.75 243.25,-110.5 331.25,-110.5 331.25,-129.75"/>
<text text-anchor="middle" x="287.25" y="-116.25" font-family="Helvetica,sans-Serif" font-size="10.00">src/html2md.cpp</text>
</a>
</g>
</g>
<!-- Node2 -->
<g id="Node000002" class="node">
<title>Node2</title>
<g id="a_Node000002"><a xlink:href="html2md_8h.html" target="_top" xlink:title=" ">
<polygon fill="white" stroke="#666666" points="143.75,-74.5 82.75,-74.5 82.75,-55.25 143.75,-55.25 143.75,-74.5"/>
<text text-anchor="middle" x="113.25" y="-61" font-family="Helvetica,sans-Serif" font-size="10.00">html2md.h</text>
</a>
</g>
</g>
<!-- Node1&#45;&gt;Node2 -->
<g id="edge1_Node000001_Node000002" class="edge">
<title>Node1&#45;&gt;Node2</title>
<g id="a_edge1_Node000001_Node000002"><a xlink:title=" ">
<path fill="none" stroke="#63b8ff" d="M257.73,-110.09C228.99,-101.29 185.08,-87.86 153.22,-78.11"/>
<polygon fill="#63b8ff" stroke="#63b8ff" points="154.5,-74.53 143.91,-74.95 152.45,-81.23 154.5,-74.53"/>
</a>
</g>
</g>
<!-- Node4 -->
<g id="Node000004" class="node">
<title>Node4</title>
<g id="a_Node000004"><a xlink:title=" ">
<polygon fill="#e0e0e0" stroke="#999999" points="50.5,-19.25 0,-19.25 0,0 50.5,0 50.5,-19.25"/>
<text text-anchor="middle" x="25.25" y="-5.75" font-family="Helvetica,sans-Serif" font-size="10.00">memory</text>
</a>
</g>
</g>
<!-- Node1&#45;&gt;Node4 -->
<g id="edge9_Node000001_Node000004" class="edge">
<title>Node1&#45;&gt;Node4</title>
<g id="a_edge9_Node000001_Node000004"><a xlink:title=" ">
<path fill="none" stroke="#63b8ff" d="M242.87,-118.83C197.06,-116.58 125.15,-107.47 73.25,-74.5 55.91,-63.49 42.57,-43.85 34.41,-29.24"/>
<polygon fill="#63b8ff" stroke="#63b8ff" points="37.14,-27.92 29.39,-20.69 30.94,-31.17 37.14,-27.92"/>
</a>
</g>
</g>
<!-- Node8 -->
<g id="Node000008" class="node">
<title>Node8</title>
<g id="a_Node000008"><a xlink:title=" ">
<polygon fill="#e0e0e0" stroke="#999999" points="206.88,-74.5 161.62,-74.5 161.62,-55.25 206.88,-55.25 206.88,-74.5"/>
<text text-anchor="middle" x="184.25" y="-61" font-family="Helvetica,sans-Serif" font-size="10.00">cstring</text>
</a>
</g>
</g>
<!-- Node1&#45;&gt;Node8 -->
<g id="edge7_Node000001_Node000008" class="edge">
<title>Node1&#45;&gt;Node8</title>
<g id="a_edge7_Node000001_Node000008"><a xlink:title=" ">
<path fill="none" stroke="#63b8ff" d="M269.78,-110.09C253.8,-101.83 229.9,-89.48 211.43,-79.93"/>
<polygon fill="#63b8ff" stroke="#63b8ff" points="213.3,-76.44 202.81,-74.95 210.08,-82.65 213.3,-76.44"/>
</a>
</g>
</g>
<!-- Node9 -->
<g id="Node000009" class="node">
<title>Node9</title>
<g id="a_Node000009"><a xlink:title=" ">
<polygon fill="#e0e0e0" stroke="#999999" points="283.25,-74.5 225.25,-74.5 225.25,-55.25 283.25,-55.25 283.25,-74.5"/>
<text text-anchor="middle" x="254.25" y="-61" font-family="Helvetica,sans-Serif" font-size="10.00">functional</text>
</a>
</g>
</g>
<!-- Node1&#45;&gt;Node9 -->
<g id="edge8_Node000001_Node000009" class="edge">
<title>Node1&#45;&gt;Node9</title>
<g id="a_edge8_Node000001_Node000009"><a xlink:title=" ">
<path fill="none" stroke="#63b8ff" d="M281.8,-110.33C277.38,-103.21 271.01,-92.93 265.51,-84.05"/>
<polygon fill="#63b8ff" stroke="#63b8ff" points="268.06,-82.52 259.82,-75.86 262.11,-86.2 268.06,-82.52"/>
</a>
</g>
</g>
<!-- Node10 -->
<g id="Node000010" class="node">
<title>Node10</title>
<g id="a_Node000010"><a xlink:title=" ">
<polygon fill="#e0e0e0" stroke="#999999" points="340.88,-74.5 301.62,-74.5 301.62,-55.25 340.88,-55.25 340.88,-74.5"/>
<text text-anchor="middle" x="321.25" y="-61" font-family="Helvetica,sans-Serif" font-size="10.00">regex</text>
</a>
</g>
</g>
<!-- Node1&#45;&gt;Node10 -->
<g id="edge10_Node000001_Node000010" class="edge">
<title>Node1&#45;&gt;Node10</title>
<g id="a_edge10_Node000001_Node000010"><a xlink:title=" ">
<path fill="none" stroke="#63b8ff" d="M292.86,-110.33C297.41,-103.21 303.98,-92.93 309.65,-84.05"/>
<polygon fill="#63b8ff" stroke="#63b8ff" points="313.08,-86.17 315.51,-75.86 307.18,-82.4 313.08,-86.17"/>
</a>
</g>
</g>
<!-- Node11 -->
<g id="Node000011" class="node">
<title>Node11</title>
<g id="a_Node000011"><a xlink:title=" ">
<polygon fill="#e0e0e0" stroke="#999999" points="409.88,-74.5 358.62,-74.5 358.62,-55.25 409.88,-55.25 409.88,-74.5"/>
<text text-anchor="middle" x="384.25" y="-61" font-family="Helvetica,sans-Serif" font-size="10.00">sstream</text>
</a>
</g>
</g>
<!-- Node1&#45;&gt;Node11 -->
<g id="edge11_Node000001_Node000011" class="edge">
<title>Node1&#45;&gt;Node11</title>
<g id="a_edge11_Node000001_Node000011"><a xlink:title=" ">
<path fill="none" stroke="#63b8ff" d="M303.7,-110.09C318.62,-101.91 340.84,-89.71 358.17,-80.19"/>
<polygon fill="#63b8ff" stroke="#63b8ff" points="359.63,-82.83 366.71,-74.95 356.26,-76.7 359.63,-82.83"/>
</a>
</g>
</g>
<!-- Node12 -->
<g id="Node000012" class="node">
<title>Node12</title>
<g id="a_Node000012"><a xlink:title=" ">
<polygon fill="#e0e0e0" stroke="#999999" points="468.25,-74.5 428.25,-74.5 428.25,-55.25 468.25,-55.25 468.25,-74.5"/>
<text text-anchor="middle" x="448.25" y="-61" font-family="Helvetica,sans-Serif" font-size="10.00">stack</text>
</a>
</g>
</g>
<!-- Node1&#45;&gt;Node12 -->
<g id="edge12_Node000001_Node000012" class="edge">
<title>Node1&#45;&gt;Node12</title>
<g id="a_edge12_Node000001_Node000012"><a xlink:title=" ">
<path fill="none" stroke="#63b8ff" d="M314.56,-110.09C343.17,-100.63 387.99,-85.81 417.74,-75.97"/>
<polygon fill="#63b8ff" stroke="#63b8ff" points="418.56,-79.05 426.96,-72.59 416.37,-72.4 418.56,-79.05"/>
</a>
</g>
</g>
<!-- Node13 -->
<g id="Node000013" class="node">
<title>Node13</title>
<g id="a_Node000013"><a xlink:title=" ">
<polygon fill="#e0e0e0" stroke="#999999" points="524.5,-74.5 486,-74.5 486,-55.25 524.5,-55.25 524.5,-74.5"/>
<text text-anchor="middle" x="505.25" y="-61" font-family="Helvetica,sans-Serif" font-size="10.00">utility</text>
</a>
</g>
</g>
<!-- Node1&#45;&gt;Node13 -->
<g id="edge13_Node000001_Node000013" class="edge">
<title>Node1&#45;&gt;Node13</title>
<g id="a_edge13_Node000001_Node000013"><a xlink:title=" ">
<path fill="none" stroke="#63b8ff" d="M329.72,-110.02C366.1,-102.03 420.1,-89.7 475.38,-74.88"/>
<polygon fill="#63b8ff" stroke="#63b8ff" points="475.98,-78.07 484.72,-72.08 474.15,-71.31 475.98,-78.07"/>
</a>
</g>
</g>
<!-- Node3 -->
<g id="Node000003" class="node">
<title>Node3</title>
<g id="a_Node000003"><a xlink:title=" ">
<polygon fill="#e0e0e0" stroke="#999999" points="103.62,-19.25 68.88,-19.25 68.88,0 103.62,0 103.62,-19.25"/>
<text text-anchor="middle" x="86.25" y="-5.75" font-family="Helvetica,sans-Serif" font-size="10.00">map</text>
</a>
</g>
</g>
<!-- Node2&#45;&gt;Node3 -->
<g id="edge2_Node000002_Node000003" class="edge">
<title>Node2&#45;&gt;Node3</title>
<g id="a_edge2_Node000002_Node000003"><a xlink:title=" ">
<path fill="none" stroke="#63b8ff" d="M108.79,-55.08C105.26,-48.11 100.19,-38.12 95.76,-29.37"/>
<polygon fill="#63b8ff" stroke="#63b8ff" points="98.45,-27.95 90.81,-20.61 92.21,-31.11 98.45,-27.95"/>
</a>
</g>
</g>
<!-- Node2&#45;&gt;Node4 -->
<g id="edge3_Node000002_Node000004" class="edge">
<title>Node2&#45;&gt;Node4</title>
<g id="a_edge3_Node000002_Node000004"><a xlink:title=" ">
<path fill="none" stroke="#63b8ff" d="M98.32,-54.84C84.92,-46.73 65.01,-34.68 49.35,-25.21"/>
<polygon fill="#63b8ff" stroke="#63b8ff" points="51.62,-21.89 41.25,-19.7 47.99,-27.87 51.62,-21.89"/>
</a>
</g>
</g>
<!-- Node5 -->
<g id="Node000005" class="node">
<title>Node5</title>
<g id="a_Node000005"><a xlink:title=" ">
<polygon fill="#e0e0e0" stroke="#999999" points="161.25,-19.25 121.25,-19.25 121.25,0 161.25,0 161.25,-19.25"/>
<text text-anchor="middle" x="141.25" y="-5.75" font-family="Helvetica,sans-Serif" font-size="10.00">string</text>
</a>
</g>
</g>
<!-- Node2&#45;&gt;Node5 -->
<g id="edge4_Node000002_Node000005" class="edge">
<title>Node2&#45;&gt;Node5</title>
<g id="a_edge4_Node000002_Node000005"><a xlink:title=" ">
<path fill="none" stroke="#63b8ff" d="M117.87,-55.08C121.58,-48.03 126.91,-37.9 131.54,-29.08"/>
<polygon fill="#63b8ff" stroke="#63b8ff" points="134.97,-31.09 136.53,-20.61 128.77,-27.83 134.97,-31.09"/>
</a>
</g>
</g>
<!-- Node6 -->
<g id="Node000006" class="node">
<title>Node6</title>
<g id="a_Node000006"><a xlink:title=" ">
<polygon fill="#e0e0e0" stroke="#999999" points="261.62,-19.25 178.88,-19.25 178.88,0 261.62,0 261.62,-19.25"/>
<text text-anchor="middle" x="220.25" y="-5.75" font-family="Helvetica,sans-Serif" font-size="10.00">unordered_map</text>
</a>
</g>
</g>
<!-- Node2&#45;&gt;Node6 -->
<g id="edge5_Node000002_Node000006" class="edge">
<title>Node2&#45;&gt;Node6</title>
<g id="a_edge5_Node000002_Node000006"><a xlink:title=" ">
<path fill="none" stroke="#63b8ff" d="M131.4,-54.84C148.08,-46.54 173.05,-34.11 192.28,-24.54"/>
<polygon fill="#63b8ff" stroke="#63b8ff" points="193.62,-27.29 201.01,-19.7 190.5,-21.02 193.62,-27.29"/>
</a>
</g>
</g>
<!-- Node7 -->
<g id="Node000007" class="node">
<title>Node7</title>
<g id="a_Node000007"><a xlink:title=" ">
<polygon fill="#e0e0e0" stroke="#999999" points="322.75,-19.25 279.75,-19.25 279.75,0 322.75,0 322.75,-19.25"/>
<text text-anchor="middle" x="301.25" y="-5.75" font-family="Helvetica,sans-Serif" font-size="10.00">vector</text>
</a>
</g>
</g>
<!-- Node2&#45;&gt;Node7 -->
<g id="edge6_Node000002_Node000007" class="edge">
<title>Node2&#45;&gt;Node7</title>
<g id="a_edge6_Node000002_Node000007"><a xlink:title=" ">
<path fill="none" stroke="#63b8ff" d="M143.87,-55.2C178.38,-45.43 234.23,-29.61 269.28,-19.68"/>
<polygon fill="#63b8ff" stroke="#63b8ff" points="269.78,-22.89 278.45,-16.8 267.87,-16.16 269.78,-22.89"/>
</a>
</g>
</g>
</g>
</svg>
