<?xml version="1.0" encoding="UTF-8" standalone="no"?>
<!DOCTYPE svg PUBLIC "-//W3C//DTD SVG 1.1//EN"
 "http://www.w3.org/Graphics/SVG/1.1/DTD/svg11.dtd">
<!-- Generated by graphviz version 9.0.0 (20230911.1827)
 -->
<!-- Title: include/html2md.h Pages: 1 -->
<svg width="331pt" height="83pt"
 viewBox="0.00 0.00 330.88 82.50" xmlns="http://www.w3.org/2000/svg" xmlns:xlink="http://www.w3.org/1999/xlink">
<g id="graph0" class="graph" transform="scale(1 1) rotate(0) translate(4 78.5)">
<title>include/html2md.h</title>
<!-- Node1 -->
<g id="Node000001" class="node">
<title>Node1</title>
<g id="a_Node000001"><a xlink:title=" ">
<polygon fill="#999999" stroke="#666666" points="188.75,-74.5 94,-74.5 94,-55.25 188.75,-55.25 188.75,-74.5"/>
<text text-anchor="middle" x="141.38" y="-61" font-family="Helvetica,sans-Serif" font-size="10.00">include/html2md.h</text>
</a>
</g>
</g>
<!-- Node2 -->
<g id="Node000002" class="node">
<title>Node2</title>
<g id="a_Node000002"><a xlink:title=" ">
<polygon fill="#e0e0e0" stroke="#999999" points="34.75,-19.25 0,-19.25 0,0 34.75,0 34.75,-19.25"/>
<text text-anchor="middle" x="17.38" y="-5.75" font-family="Helvetica,sans-Serif" font-size="10.00">map</text>
</a>
</g>
</g>
<!-- Node1&#45;&gt;Node2 -->
<g id="edge1_Node000001_Node000002" class="edge">
<title>Node1&#45;&gt;Node2</title>
<g id="a_edge1_Node000001_Node000002"><a xlink:title=" ">
<path fill="none" stroke="#63b8ff" d="M120.34,-54.84C99.68,-45.97 68.02,-32.37 45.27,-22.6"/>
<polygon fill="#63b8ff" stroke="#63b8ff" points="46.86,-19.48 36.29,-18.75 44.1,-25.91 46.86,-19.48"/>
</a>
</g>
</g>
<!-- Node3 -->
<g id="Node000003" class="node">
<title>Node3</title>
<g id="a_Node000003"><a xlink:title=" ">
<polygon fill="#e0e0e0" stroke="#999999" points="103.62,-19.25 53.12,-19.25 53.12,0 103.62,0 103.62,-19.25"/>
<text text-anchor="middle" x="78.38" y="-5.75" font-family="Helvetica,sans-Serif" font-size="10.00">memory</text>
</a>
</g>
</g>
<!-- Node1&#45;&gt;Node3 -->
<g id="edge2_Node000001_Node000003" class="edge">
<title>Node1&#45;&gt;Node3</title>
<g id="a_edge2_Node000001_Node000003"><a xlink:title=" ">
<path fill="none" stroke="#63b8ff" d="M130.69,-54.84C121.67,-47.22 108.54,-36.12 97.69,-26.95"/>
<polygon fill="#63b8ff" stroke="#63b8ff" points="99.96,-24.28 90.06,-20.5 95.44,-29.63 99.96,-24.28"/>
</a>
</g>
</g>
<!-- Node4 -->
<g id="Node000004" class="node">
<title>Node4</title>
<g id="a_Node000004"><a xlink:title=" ">
<polygon fill="#e0e0e0" stroke="#999999" points="161.38,-19.25 121.38,-19.25 121.38,0 161.38,0 161.38,-19.25"/>
<text text-anchor="middle" x="141.38" y="-5.75" font-family="Helvetica,sans-Serif" font-size="10.00">string</text>
</a>
</g>
</g>
<!-- Node1&#45;&gt;Node4 -->
<g id="edge3_Node000001_Node000004" class="edge">
<title>Node1&#45;&gt;Node4</title>
<g id="a_edge3_Node000001_Node000004"><a xlink:title=" ">
<path fill="none" stroke="#63b8ff" d="M141.38,-55.08C141.38,-48.57 141.38,-39.42 141.38,-31.12"/>
<polygon fill="#63b8ff" stroke="#63b8ff" points="144.88,-31.12 141.38,-21.12 137.88,-31.12 144.88,-31.12"/>
</a>
</g>
</g>
<!-- Node5 -->
<g id="Node000005" class="node">
<title>Node5</title>
<g id="a_Node000005"><a xlink:title=" ">
<polygon fill="#e0e0e0" stroke="#999999" points="261.75,-19.25 179,-19.25 179,0 261.75,0 261.75,-19.25"/>
<text text-anchor="middle" x="220.38" y="-5.75" font-family="Helvetica,sans-Serif" font-size="10.00">unordered_map</text>
</a>
</g>
</g>
<!-- Node1&#45;&gt;Node5 -->
<g id="edge4_Node000001_Node000005" class="edge">
<title>Node1&#45;&gt;Node5</title>
<g id="a_edge4_Node000001_Node000005"><a xlink:title=" ">
<path fill="none" stroke="#63b8ff" d="M154.78,-54.84C166.47,-46.96 183.68,-35.36 197.54,-26.02"/>
<polygon fill="#63b8ff" stroke="#63b8ff" points="199.32,-29.04 205.65,-20.55 195.4,-23.24 199.32,-29.04"/>
</a>
</g>
</g>
<!-- Node6 -->
<g id="Node000006" class="node">
<title>Node6</title>
<g id="a_Node000006"><a xlink:title=" ">
<polygon fill="#e0e0e0" stroke="#999999" points="322.88,-19.25 279.88,-19.25 279.88,0 322.88,0 322.88,-19.25"/>
<text text-anchor="middle" x="301.38" y="-5.75" font-family="Helvetica,sans-Serif" font-size="10.00">vector</text>
</a>
</g>
</g>
<!-- Node1&#45;&gt;Node6 -->
<g id="edge5_Node000001_Node000006" class="edge">
<title>Node1&#45;&gt;Node6</title>
<g id="a_edge5_Node000001_Node000006"><a xlink:title=" ">
<path fill="none" stroke="#63b8ff" d="M168.52,-54.84C196.35,-45.58 239.62,-31.18 269.16,-21.35"/>
<polygon fill="#63b8ff" stroke="#63b8ff" points="269.94,-24.78 278.32,-18.3 267.73,-18.14 269.94,-24.78"/>
</a>
</g>
</g>
</g>
</svg>
