<?xml version="1.0" encoding="UTF-8" standalone="no"?>
<!DOCTYPE svg PUBLIC "-//W3C//DTD SVG 1.1//EN"
 "http://www.w3.org/Graphics/SVG/1.1/DTD/svg11.dtd">
<!-- Generated by graphviz version 9.0.0 (20230911.1827)
 -->
<!-- Title: src/html2md.cpp Pages: 1 -->
<svg width="479pt" height="138pt"
 viewBox="0.00 0.00 478.75 137.75" xmlns="http://www.w3.org/2000/svg" xmlns:xlink="http://www.w3.org/1999/xlink">

<svg id="main" version="1.1" xmlns="http://www.w3.org/2000/svg" xmlns:xlink="http://www.w3.org/1999/xlink" xml:space="preserve" onload="init(evt)">
<style type="text/css"><![CDATA[
.node, .edge {opacity: 0.7;}
.node.selected, .edge.selected {opacity: 1;}
.edge:hover path { stroke: red; }
.edge:hover polygon { stroke: red; fill: red; }
]]></style>
<script type="application/ecmascript" xlink:href="svg.min.js"/>
<svg id="graph" class="graph">
<g id="graph0" class="graph" transform="scale(1 1) rotate(0) translate(4 133.75)">
<title>src/html2md.cpp</title>
<!-- Node1 -->
<g id="Node000001" class="node">
<title>Node1</title>
<g id="a_Node000001"><a xlink:title=" ">
<polygon fill="#999999" stroke="#666666" points="293.25,-129.75 205.25,-129.75 205.25,-110.5 293.25,-110.5 293.25,-129.75"/>
<text text-anchor="middle" x="249.25" y="-116.25" font-family="Helvetica,sans-Serif" font-size="10.00">src/html2md.cpp</text>
</a>
</g>
</g>
<!-- Node2 -->
<g id="Node000002" class="node">
<title>Node2</title>
<g id="a_Node000002"><a xlink:href="html2md_8h.html" target="_top" xlink:title=" ">
<polygon fill="white" stroke="#666666" points="140.75,-74.5 79.75,-74.5 79.75,-55.25 140.75,-55.25 140.75,-74.5"/>
<text text-anchor="middle" x="110.25" y="-61" font-family="Helvetica,sans-Serif" font-size="10.00">html2md.h</text>
</a>
</g>
</g>
<!-- Node1&#45;&gt;Node2 -->
<g id="edge1_Node000001_Node000002" class="edge">
<title>Node1&#45;&gt;Node2</title>
<g id="a_edge1_Node000001_Node000002"><a xlink:title=" ">
<path fill="none" stroke="#63b8ff" d="M225.67,-110.09C203.41,-101.56 169.76,-88.67 144.53,-79.01"/>
<polygon fill="#63b8ff" stroke="#63b8ff" points="145.95,-75.8 135.36,-75.49 143.44,-82.34 145.95,-75.8"/>
</a>
</g>
</g>
<!-- Node3 -->
<g id="Node000003" class="node">
<title>Node3</title>
<g id="a_Node000003"><a xlink:title=" ">
<polygon fill="#e0e0e0" stroke="#999999" points="50.5,-19.25 0,-19.25 0,0 50.5,0 50.5,-19.25"/>
<text text-anchor="middle" x="25.25" y="-5.75" font-family="Helvetica,sans-Serif" font-size="10.00">memory</text>
</a>
</g>
</g>
<!-- Node1&#45;&gt;Node3 -->
<g id="edge9_Node000001_Node000003" class="edge">
<title>Node1&#45;&gt;Node3</title>
<g id="a_edge9_Node000001_Node000003"><a xlink:title=" ">
<path fill="none" stroke="#63b8ff" d="M204.83,-116.48C166.56,-112.32 111.32,-101.69 71.25,-74.5 54.67,-63.25 41.99,-43.93 34.19,-29.48"/>
<polygon fill="#63b8ff" stroke="#63b8ff" points="37.5,-28.28 29.86,-20.94 31.26,-31.44 37.5,-28.28"/>
</a>
</g>
</g>
<!-- Node6 -->
<g id="Node000006" class="node">
<title>Node6</title>
<g id="a_Node000006"><a xlink:href="table_8h.html" target="_top" xlink:title=" ">
<polygon fill="white" stroke="#666666" points="203.5,-74.5 159,-74.5 159,-55.25 203.5,-55.25 203.5,-74.5"/>
<text text-anchor="middle" x="181.25" y="-61" font-family="Helvetica,sans-Serif" font-size="10.00">table.h</text>
</a>
</g>
</g>
<!-- Node1&#45;&gt;Node6 -->
<g id="edge5_Node000001_Node000006" class="edge">
<title>Node1&#45;&gt;Node6</title>
<g id="a_edge5_Node000001_Node000006"><a xlink:title=" ">
<path fill="none" stroke="#63b8ff" d="M237.71,-110.09C227.79,-102.32 213.24,-90.92 201.39,-81.65"/>
<polygon fill="#63b8ff" stroke="#63b8ff" points="203.84,-79.12 193.81,-75.71 199.52,-84.63 203.84,-79.12"/>
</a>
</g>
</g>
<!-- Node7 -->
<g id="Node000007" class="node">
<title>Node7</title>
<g id="a_Node000007"><a xlink:title=" ">
<polygon fill="#e0e0e0" stroke="#999999" points="277.12,-74.5 221.38,-74.5 221.38,-55.25 277.12,-55.25 277.12,-74.5"/>
<text text-anchor="middle" x="249.25" y="-61" font-family="Helvetica,sans-Serif" font-size="10.00">algorithm</text>
</a>
</g>
</g>
<!-- Node1&#45;&gt;Node7 -->
<g id="edge7_Node000001_Node000007" class="edge">
<title>Node1&#45;&gt;Node7</title>
<g id="a_edge7_Node000001_Node000007"><a xlink:title=" ">
<path fill="none" stroke="#63b8ff" d="M249.25,-110.33C249.25,-103.82 249.25,-94.67 249.25,-86.37"/>
<polygon fill="#63b8ff" stroke="#63b8ff" points="252.75,-86.37 249.25,-76.37 245.75,-86.37 252.75,-86.37"/>
</a>
</g>
</g>
<!-- Node8 -->
<g id="Node000008" class="node">
<title>Node8</title>
<g id="a_Node000008"><a xlink:title=" ">
<polygon fill="#e0e0e0" stroke="#999999" points="340.88,-74.5 295.62,-74.5 295.62,-55.25 340.88,-55.25 340.88,-74.5"/>
<text text-anchor="middle" x="318.25" y="-61" font-family="Helvetica,sans-Serif" font-size="10.00">cstring</text>
</a>
</g>
</g>
<!-- Node1&#45;&gt;Node8 -->
<g id="edge8_Node000001_Node000008" class="edge">
<title>Node1&#45;&gt;Node8</title>
<g id="a_edge8_Node000001_Node000008"><a xlink:title=" ">
<path fill="none" stroke="#63b8ff" d="M260.95,-110.09C271.03,-102.32 285.79,-90.92 297.81,-81.65"/>
<polygon fill="#63b8ff" stroke="#63b8ff" points="299.74,-84.58 305.52,-75.7 295.46,-79.04 299.74,-84.58"/>
</a>
</g>
</g>
<!-- Node9 -->
<g id="Node000009" class="node">
<title>Node9</title>
<g id="a_Node000009"><a xlink:title=" ">
<polygon fill="#e0e0e0" stroke="#999999" points="409.88,-74.5 358.62,-74.5 358.62,-55.25 409.88,-55.25 409.88,-74.5"/>
<text text-anchor="middle" x="384.25" y="-61" font-family="Helvetica,sans-Serif" font-size="10.00">sstream</text>
</a>
</g>
</g>
<!-- Node1&#45;&gt;Node9 -->
<g id="edge10_Node000001_Node000009" class="edge">
<title>Node1&#45;&gt;Node9</title>
<g id="a_edge10_Node000001_Node000009"><a xlink:title=" ">
<path fill="none" stroke="#63b8ff" d="M272.15,-110.09C293.68,-101.6 326.16,-88.79 350.63,-79.14"/>
<polygon fill="#63b8ff" stroke="#63b8ff" points="351.81,-82.43 359.83,-75.51 349.24,-75.92 351.81,-82.43"/>
</a>
</g>
</g>
<!-- Node10 -->
<g id="Node000010" class="node">
<title>Node10</title>
<g id="a_Node000010"><a xlink:title=" ">
<polygon fill="#e0e0e0" stroke="#999999" points="470.75,-74.5 427.75,-74.5 427.75,-55.25 470.75,-55.25 470.75,-74.5"/>
<text text-anchor="middle" x="449.25" y="-61" font-family="Helvetica,sans-Serif" font-size="10.00">vector</text>
</a>
</g>
</g>
<!-- Node1&#45;&gt;Node10 -->
<g id="edge11_Node000001_Node000010" class="edge">
<title>Node1&#45;&gt;Node10</title>
<g id="a_edge11_Node000001_Node000010"><a xlink:title=" ">
<path fill="none" stroke="#63b8ff" d="M284.8,-110.05C316.96,-101.78 365.87,-89.07 416.49,-75.22"/>
<polygon fill="#63b8ff" stroke="#63b8ff" points="417.14,-78.67 425.85,-72.65 415.28,-71.92 417.14,-78.67"/>
</a>
</g>
</g>
<!-- Node2&#45;&gt;Node3 -->
<g id="edge2_Node000002_Node000003" class="edge">
<title>Node2&#45;&gt;Node3</title>
<g id="a_edge2_Node000002_Node000003"><a xlink:title=" ">
<path fill="none" stroke="#63b8ff" d="M95.83,-54.84C83.13,-46.89 64.38,-35.14 49.39,-25.75"/>
<polygon fill="#63b8ff" stroke="#63b8ff" points="51.35,-22.85 41.02,-20.51 47.64,-28.78 51.35,-22.85"/>
</a>
</g>
</g>
<!-- Node4 -->
<g id="Node000004" class="node">
<title>Node4</title>
<g id="a_Node000004"><a xlink:title=" ">
<polygon fill="#e0e0e0" stroke="#999999" points="209.25,-19.25 169.25,-19.25 169.25,0 209.25,0 209.25,-19.25"/>
<text text-anchor="middle" x="189.25" y="-5.75" font-family="Helvetica,sans-Serif" font-size="10.00">string</text>
</a>
</g>
</g>
<!-- Node2&#45;&gt;Node4 -->
<g id="edge3_Node000002_Node000004" class="edge">
<title>Node2&#45;&gt;Node4</title>
<g id="a_edge3_Node000002_Node000004"><a xlink:title=" ">
<path fill="none" stroke="#63b8ff" d="M123.65,-54.84C135.34,-46.96 152.55,-35.36 166.41,-26.02"/>
<polygon fill="#63b8ff" stroke="#63b8ff" points="168.19,-29.04 174.53,-20.55 164.28,-23.24 168.19,-29.04"/>
</a>
</g>
</g>
<!-- Node5 -->
<g id="Node000005" class="node">
<title>Node5</title>
<g id="a_Node000005"><a xlink:title=" ">
<polygon fill="#e0e0e0" stroke="#999999" points="151.62,-19.25 68.88,-19.25 68.88,0 151.62,0 151.62,-19.25"/>
<text text-anchor="middle" x="110.25" y="-5.75" font-family="Helvetica,sans-Serif" font-size="10.00">unordered_map</text>
</a>
</g>
</g>
<!-- Node2&#45;&gt;Node5 -->
<g id="edge4_Node000002_Node000005" class="edge">
<title>Node2&#45;&gt;Node5</title>
<g id="a_edge4_Node000002_Node000005"><a xlink:title=" ">
<path fill="none" stroke="#63b8ff" d="M110.25,-55.08C110.25,-48.57 110.25,-39.42 110.25,-31.12"/>
<polygon fill="#63b8ff" stroke="#63b8ff" points="113.75,-31.12 110.25,-21.12 106.75,-31.12 113.75,-31.12"/>
</a>
</g>
</g>
<!-- Node6&#45;&gt;Node4 -->
<g id="edge6_Node000006_Node000004" class="edge">
<title>Node6&#45;&gt;Node4</title>
<g id="a_edge6_Node000006_Node000004"><a xlink:title=" ">
<path fill="none" stroke="#63b8ff" d="M182.57,-55.08C183.56,-48.49 184.96,-39.21 186.22,-30.82"/>
<polygon fill="#63b8ff" stroke="#63b8ff" points="189.65,-31.51 187.68,-21.11 182.73,-30.47 189.65,-31.51"/>
</a>
</g>
</g>
</g>
</svg>
</svg>

<style type='text/css'>
<![CDATA[
[data-mouse-over-selected='false'] { opacity: 0.7; }
[data-mouse-over-selected='true']  { opacity: 1.0; }
]]>
</style>
<script type="application/ecmascript"><![CDATA[
document.addEventListener('DOMContentLoaded', (event) => {
  highlightEdges();
  highlightAdjacentNodes();
});
]]></script>
</svg>
