<?xml version="1.0" encoding="UTF-8" standalone="no"?>
<!DOCTYPE svg PUBLIC "-//W3C//DTD SVG 1.1//EN"
 "http://www.w3.org/Graphics/SVG/1.1/DTD/svg11.dtd">
<!-- Generated by graphviz version 8.0.5 (20230430.1635)
 -->
<!-- Title: include/html2md.h Pages: 1 -->
<svg width="331pt" height="83pt"
 viewBox="0.00 0.00 330.88 82.50" xmlns="http://www.w3.org/2000/svg" xmlns:xlink="http://www.w3.org/1999/xlink">
<g id="graph0" class="graph" transform="scale(1 1) rotate(0) translate(4 78.5)">
<title>include/html2md.h</title>
<!-- Node1 -->
<g id="Node000001" class="node">
<title>Node1</title>
<g id="a_Node000001"><a xlink:title=" ">
<polygon fill="#999999" stroke="#666666" points="188.75,-74.5 94,-74.5 94,-55.25 188.75,-55.25 188.75,-74.5"/>
<text text-anchor="middle" x="141.38" y="-61" font-family="Helvetica,sans-Serif" font-size="10.00">include/html2md.h</text>
</a>
</g>
</g>
<!-- Node2 -->
<g id="Node000002" class="node">
<title>Node2</title>
<g id="a_Node000002"><a xlink:title=" ">
<polygon fill="#e0e0e0" stroke="#999999" points="34.75,-19.25 0,-19.25 0,0 34.75,0 34.75,-19.25"/>
<text text-anchor="middle" x="17.38" y="-5.75" font-family="Helvetica,sans-Serif" font-size="10.00">map</text>
</a>
</g>
</g>
<!-- Node1&#45;&gt;Node2 -->
<g id="edge1_Node000001_Node000002" class="edge">
<title>Node1&#45;&gt;Node2</title>
<g id="a_edge1_Node000001_Node000002"><a xlink:title=" ">
<path fill="none" stroke="#63b8ff" d="M120.34,-54.84C99.58,-45.93 67.73,-32.25 44.96,-22.47"/>
<polygon fill="#63b8ff" stroke="#63b8ff" points="46.47,-18.88 35.9,-18.15 43.71,-25.31 46.47,-18.88"/>
</a>
</g>
</g>
<!-- Node3 -->
<g id="Node000003" class="node">
<title>Node3</title>
<g id="a_Node000003"><a xlink:title=" ">
<polygon fill="#e0e0e0" stroke="#999999" points="103.62,-19.25 53.12,-19.25 53.12,0 103.62,0 103.62,-19.25"/>
<text text-anchor="middle" x="78.38" y="-5.75" font-family="Helvetica,sans-Serif" font-size="10.00">memory</text>
</a>
</g>
</g>
<!-- Node1&#45;&gt;Node3 -->
<g id="edge2_Node000001_Node000003" class="edge">
<title>Node1&#45;&gt;Node3</title>
<g id="a_edge2_Node000001_Node000003"><a xlink:title=" ">
<path fill="none" stroke="#63b8ff" d="M130.69,-54.84C121.49,-47.07 108.01,-35.67 97.04,-26.4"/>
<polygon fill="#63b8ff" stroke="#63b8ff" points="99.8,-23.31 89.9,-19.52 95.28,-28.65 99.8,-23.31"/>
</a>
</g>
</g>
<!-- Node4 -->
<g id="Node000004" class="node">
<title>Node4</title>
<g id="a_Node000004"><a xlink:title=" ">
<polygon fill="#e0e0e0" stroke="#999999" points="161.38,-19.25 121.38,-19.25 121.38,0 161.38,0 161.38,-19.25"/>
<text text-anchor="middle" x="141.38" y="-5.75" font-family="Helvetica,sans-Serif" font-size="10.00">string</text>
</a>
</g>
</g>
<!-- Node1&#45;&gt;Node4 -->
<g id="edge3_Node000001_Node000004" class="edge">
<title>Node1&#45;&gt;Node4</title>
<g id="a_edge3_Node000001_Node000004"><a xlink:title=" ">
<path fill="none" stroke="#63b8ff" d="M141.38,-55.08C141.38,-48.42 141.38,-38.99 141.38,-30.53"/>
<polygon fill="#63b8ff" stroke="#63b8ff" points="144.88,-30.61 141.38,-20.61 137.88,-30.61 144.88,-30.61"/>
</a>
</g>
</g>
<!-- Node5 -->
<g id="Node000005" class="node">
<title>Node5</title>
<g id="a_Node000005"><a xlink:title=" ">
<polygon fill="#e0e0e0" stroke="#999999" points="261.75,-19.25 179,-19.25 179,0 261.75,0 261.75,-19.25"/>
<text text-anchor="middle" x="220.38" y="-5.75" font-family="Helvetica,sans-Serif" font-size="10.00">unordered_map</text>
</a>
</g>
</g>
<!-- Node1&#45;&gt;Node5 -->
<g id="edge4_Node000001_Node000005" class="edge">
<title>Node1&#45;&gt;Node5</title>
<g id="a_edge4_Node000001_Node000005"><a xlink:title=" ">
<path fill="none" stroke="#63b8ff" d="M154.78,-54.84C166.58,-46.89 184.01,-35.14 197.94,-25.75"/>
<polygon fill="#63b8ff" stroke="#63b8ff" points="199.57,-28.19 205.91,-19.7 195.66,-22.39 199.57,-28.19"/>
</a>
</g>
</g>
<!-- Node6 -->
<g id="Node000006" class="node">
<title>Node6</title>
<g id="a_Node000006"><a xlink:title=" ">
<polygon fill="#e0e0e0" stroke="#999999" points="322.88,-19.25 279.88,-19.25 279.88,0 322.88,0 322.88,-19.25"/>
<text text-anchor="middle" x="301.38" y="-5.75" font-family="Helvetica,sans-Serif" font-size="10.00">vector</text>
</a>
</g>
</g>
<!-- Node1&#45;&gt;Node6 -->
<g id="edge5_Node000001_Node000006" class="edge">
<title>Node1&#45;&gt;Node6</title>
<g id="a_edge5_Node000001_Node000006"><a xlink:title=" ">
<path fill="none" stroke="#63b8ff" d="M168.52,-54.84C196.47,-45.54 240,-31.05 269.55,-21.22"/>
<polygon fill="#63b8ff" stroke="#63b8ff" points="270.37,-24.3 278.76,-17.82 268.16,-17.66 270.37,-24.3"/>
</a>
</g>
</g>
</g>
</svg>
