<?xml version="1.0" encoding="UTF-8" standalone="no"?>
<!DOCTYPE svg PUBLIC "-//W3C//DTD SVG 1.1//EN"
 "http://www.w3.org/Graphics/SVG/1.1/DTD/svg11.dtd">
<!-- Generated by graphviz version 9.0.0 (20230911.1827)
 -->
<!-- Title: src/html2md.cpp Pages: 1 -->
<svg width="663pt" height="138pt"
 viewBox="0.00 0.00 662.50 137.75" xmlns="http://www.w3.org/2000/svg" xmlns:xlink="http://www.w3.org/1999/xlink">
<g id="graph0" class="graph" transform="scale(1 1) rotate(0) translate(4 133.75)">
<title>src/html2md.cpp</title>
<!-- Node1 -->
<g id="Node000001" class="node">
<title>Node1</title>
<g id="a_Node000001"><a xlink:title=" ">
<polygon fill="#999999" stroke="#666666" points="415.25,-129.75 327.25,-129.75 327.25,-110.5 415.25,-110.5 415.25,-129.75"/>
<text text-anchor="middle" x="371.25" y="-116.25" font-family="Helvetica,sans-Serif" font-size="10.00">src/html2md.cpp</text>
</a>
</g>
</g>
<!-- Node2 -->
<g id="Node000002" class="node">
<title>Node2</title>
<g id="a_Node000002"><a xlink:href="html2md_8h.html" target="_top" xlink:title=" ">
<polygon fill="white" stroke="#666666" points="193.75,-74.5 132.75,-74.5 132.75,-55.25 193.75,-55.25 193.75,-74.5"/>
<text text-anchor="middle" x="163.25" y="-61" font-family="Helvetica,sans-Serif" font-size="10.00">html2md.h</text>
</a>
</g>
</g>
<!-- Node1&#45;&gt;Node2 -->
<g id="edge1_Node000001_Node000002" class="edge">
<title>Node1&#45;&gt;Node2</title>
<g id="a_edge1_Node000001_Node000002"><a xlink:title=" ">
<path fill="none" stroke="#63b8ff" d="M335.97,-110.09C299.68,-100.8 243.18,-86.34 204.77,-76.5"/>
<polygon fill="#63b8ff" stroke="#63b8ff" points="205.98,-73.2 195.42,-74.11 204.24,-79.98 205.98,-73.2"/>
</a>
</g>
</g>
<!-- Node4 -->
<g id="Node000004" class="node">
<title>Node4</title>
<g id="a_Node000004"><a xlink:title=" ">
<polygon fill="#e0e0e0" stroke="#999999" points="50.5,-19.25 0,-19.25 0,0 50.5,0 50.5,-19.25"/>
<text text-anchor="middle" x="25.25" y="-5.75" font-family="Helvetica,sans-Serif" font-size="10.00">memory</text>
</a>
</g>
</g>
<!-- Node1&#45;&gt;Node4 -->
<g id="edge12_Node000001_Node000004" class="edge">
<title>Node1&#45;&gt;Node4</title>
<g id="a_edge12_Node000001_Node000004"><a xlink:title=" ">
<path fill="none" stroke="#63b8ff" d="M326.99,-116.38C276.43,-112.06 191.94,-101.21 124.25,-74.5 94.44,-62.74 64.03,-41.44 44.93,-26.69"/>
<polygon fill="#63b8ff" stroke="#63b8ff" points="47.23,-24.06 37.22,-20.6 42.89,-29.55 47.23,-24.06"/>
</a>
</g>
</g>
<!-- Node8 -->
<g id="Node000008" class="node">
<title>Node8</title>
<g id="a_Node000008"><a xlink:href="table_8h.html" target="_top" xlink:title=" ">
<polygon fill="white" stroke="#666666" points="256.5,-74.5 212,-74.5 212,-55.25 256.5,-55.25 256.5,-74.5"/>
<text text-anchor="middle" x="234.25" y="-61" font-family="Helvetica,sans-Serif" font-size="10.00">table.h</text>
</a>
</g>
</g>
<!-- Node1&#45;&gt;Node8 -->
<g id="edge7_Node000001_Node000008" class="edge">
<title>Node1&#45;&gt;Node8</title>
<g id="a_edge7_Node000001_Node000008"><a xlink:title=" ">
<path fill="none" stroke="#63b8ff" d="M348.01,-110.09C325.8,-101.46 292.1,-88.36 267.13,-78.66"/>
<polygon fill="#63b8ff" stroke="#63b8ff" points="268.69,-75.51 258.1,-75.15 266.16,-82.03 268.69,-75.51"/>
</a>
</g>
</g>
<!-- Node9 -->
<g id="Node000009" class="node">
<title>Node9</title>
<g id="a_Node000009"><a xlink:title=" ">
<polygon fill="#e0e0e0" stroke="#999999" points="330.12,-74.5 274.38,-74.5 274.38,-55.25 330.12,-55.25 330.12,-74.5"/>
<text text-anchor="middle" x="302.25" y="-61" font-family="Helvetica,sans-Serif" font-size="10.00">algorithm</text>
</a>
</g>
</g>
<!-- Node1&#45;&gt;Node9 -->
<g id="edge9_Node000001_Node000009" class="edge">
<title>Node1&#45;&gt;Node9</title>
<g id="a_edge9_Node000001_Node000009"><a xlink:title=" ">
<path fill="none" stroke="#63b8ff" d="M359.55,-110.09C349.47,-102.32 334.71,-90.92 322.69,-81.65"/>
<polygon fill="#63b8ff" stroke="#63b8ff" points="325.04,-79.04 314.98,-75.7 320.76,-84.58 325.04,-79.04"/>
</a>
</g>
</g>
<!-- Node10 -->
<g id="Node000010" class="node">
<title>Node10</title>
<g id="a_Node000010"><a xlink:title=" ">
<polygon fill="#e0e0e0" stroke="#999999" points="393.88,-74.5 348.62,-74.5 348.62,-55.25 393.88,-55.25 393.88,-74.5"/>
<text text-anchor="middle" x="371.25" y="-61" font-family="Helvetica,sans-Serif" font-size="10.00">cstring</text>
</a>
</g>
</g>
<!-- Node1&#45;&gt;Node10 -->
<g id="edge10_Node000001_Node000010" class="edge">
<title>Node1&#45;&gt;Node10</title>
<g id="a_edge10_Node000001_Node000010"><a xlink:title=" ">
<path fill="none" stroke="#63b8ff" d="M371.25,-110.33C371.25,-103.82 371.25,-94.67 371.25,-86.37"/>
<polygon fill="#63b8ff" stroke="#63b8ff" points="374.75,-86.37 371.25,-76.37 367.75,-86.37 374.75,-86.37"/>
</a>
</g>
</g>
<!-- Node11 -->
<g id="Node000011" class="node">
<title>Node11</title>
<g id="a_Node000011"><a xlink:title=" ">
<polygon fill="#e0e0e0" stroke="#999999" points="470.25,-74.5 412.25,-74.5 412.25,-55.25 470.25,-55.25 470.25,-74.5"/>
<text text-anchor="middle" x="441.25" y="-61" font-family="Helvetica,sans-Serif" font-size="10.00">functional</text>
</a>
</g>
</g>
<!-- Node1&#45;&gt;Node11 -->
<g id="edge11_Node000001_Node000011" class="edge">
<title>Node1&#45;&gt;Node11</title>
<g id="a_edge11_Node000001_Node000011"><a xlink:title=" ">
<path fill="none" stroke="#63b8ff" d="M383.12,-110.09C393.34,-102.32 408.32,-90.92 420.51,-81.65"/>
<polygon fill="#63b8ff" stroke="#63b8ff" points="422.51,-84.53 428.35,-75.69 418.27,-78.96 422.51,-84.53"/>
</a>
</g>
</g>
<!-- Node12 -->
<g id="Node000012" class="node">
<title>Node12</title>
<g id="a_Node000012"><a xlink:title=" ">
<polygon fill="#e0e0e0" stroke="#999999" points="539.88,-74.5 488.62,-74.5 488.62,-55.25 539.88,-55.25 539.88,-74.5"/>
<text text-anchor="middle" x="514.25" y="-61" font-family="Helvetica,sans-Serif" font-size="10.00">sstream</text>
</a>
</g>
</g>
<!-- Node1&#45;&gt;Node12 -->
<g id="edge13_Node000001_Node000012" class="edge">
<title>Node1&#45;&gt;Node12</title>
<g id="a_edge13_Node000001_Node000012"><a xlink:title=" ">
<path fill="none" stroke="#63b8ff" d="M395.51,-110.09C418.52,-101.52 453.34,-88.56 479.33,-78.88"/>
<polygon fill="#63b8ff" stroke="#63b8ff" points="480.3,-82.25 488.45,-75.48 477.86,-75.69 480.3,-82.25"/>
</a>
</g>
</g>
<!-- Node13 -->
<g id="Node000013" class="node">
<title>Node13</title>
<g id="a_Node000013"><a xlink:title=" ">
<polygon fill="#e0e0e0" stroke="#999999" points="598.25,-74.5 558.25,-74.5 558.25,-55.25 598.25,-55.25 598.25,-74.5"/>
<text text-anchor="middle" x="578.25" y="-61" font-family="Helvetica,sans-Serif" font-size="10.00">stack</text>
</a>
</g>
</g>
<!-- Node1&#45;&gt;Node13 -->
<g id="edge14_Node000001_Node000013" class="edge">
<title>Node1&#45;&gt;Node13</title>
<g id="a_edge14_Node000001_Node000013"><a xlink:title=" ">
<path fill="none" stroke="#63b8ff" d="M409.57,-110.03C443.37,-101.89 494.23,-89.38 547.06,-75.01"/>
<polygon fill="#63b8ff" stroke="#63b8ff" points="547.82,-78.43 556.54,-72.42 545.97,-71.68 547.82,-78.43"/>
</a>
</g>
</g>
<!-- Node14 -->
<g id="Node000014" class="node">
<title>Node14</title>
<g id="a_Node000014"><a xlink:title=" ">
<polygon fill="#e0e0e0" stroke="#999999" points="654.5,-74.5 616,-74.5 616,-55.25 654.5,-55.25 654.5,-74.5"/>
<text text-anchor="middle" x="635.25" y="-61" font-family="Helvetica,sans-Serif" font-size="10.00">utility</text>
</a>
</g>
</g>
<!-- Node1&#45;&gt;Node14 -->
<g id="edge15_Node000001_Node000014" class="edge">
<title>Node1&#45;&gt;Node14</title>
<g id="a_edge15_Node000001_Node000014"><a xlink:title=" ">
<path fill="none" stroke="#63b8ff" d="M415.5,-112.28C460.84,-104.93 533.54,-92.21 604.79,-74.89"/>
<polygon fill="#63b8ff" stroke="#63b8ff" points="605.41,-78.34 614.28,-72.55 603.73,-71.55 605.41,-78.34"/>
</a>
</g>
</g>
<!-- Node3 -->
<g id="Node000003" class="node">
<title>Node3</title>
<g id="a_Node000003"><a xlink:title=" ">
<polygon fill="#e0e0e0" stroke="#999999" points="103.62,-19.25 68.88,-19.25 68.88,0 103.62,0 103.62,-19.25"/>
<text text-anchor="middle" x="86.25" y="-5.75" font-family="Helvetica,sans-Serif" font-size="10.00">map</text>
</a>
</g>
</g>
<!-- Node2&#45;&gt;Node3 -->
<g id="edge2_Node000002_Node000003" class="edge">
<title>Node2&#45;&gt;Node3</title>
<g id="a_edge2_Node000002_Node000003"><a xlink:title=" ">
<path fill="none" stroke="#63b8ff" d="M150.19,-54.84C138.79,-46.96 122.02,-35.36 108.51,-26.02"/>
<polygon fill="#63b8ff" stroke="#63b8ff" points="110.84,-23.37 100.62,-20.56 106.85,-29.13 110.84,-23.37"/>
</a>
</g>
</g>
<!-- Node2&#45;&gt;Node4 -->
<g id="edge3_Node000002_Node000004" class="edge">
<title>Node2&#45;&gt;Node4</title>
<g id="a_edge3_Node000002_Node000004"><a xlink:title=" ">
<path fill="none" stroke="#63b8ff" d="M139.84,-54.84C117.73,-46.31 84.33,-33.42 59.28,-23.76"/>
<polygon fill="#63b8ff" stroke="#63b8ff" points="60.78,-20.58 50.19,-20.25 58.26,-27.11 60.78,-20.58"/>
</a>
</g>
</g>
<!-- Node5 -->
<g id="Node000005" class="node">
<title>Node5</title>
<g id="a_Node000005"><a xlink:title=" ">
<polygon fill="#e0e0e0" stroke="#999999" points="324.25,-19.25 284.25,-19.25 284.25,0 324.25,0 324.25,-19.25"/>
<text text-anchor="middle" x="304.25" y="-5.75" font-family="Helvetica,sans-Serif" font-size="10.00">string</text>
</a>
</g>
</g>
<!-- Node2&#45;&gt;Node5 -->
<g id="edge4_Node000002_Node000005" class="edge">
<title>Node2&#45;&gt;Node5</title>
<g id="a_edge4_Node000002_Node000005"><a xlink:title=" ">
<path fill="none" stroke="#63b8ff" d="M187.17,-54.84C210.85,-45.9 247.22,-32.16 273.14,-22.37"/>
<polygon fill="#63b8ff" stroke="#63b8ff" points="274.35,-25.66 282.47,-18.85 271.87,-19.11 274.35,-25.66"/>
</a>
</g>
</g>
<!-- Node6 -->
<g id="Node000006" class="node">
<title>Node6</title>
<g id="a_Node000006"><a xlink:title=" ">
<polygon fill="#e0e0e0" stroke="#999999" points="204.62,-19.25 121.88,-19.25 121.88,0 204.62,0 204.62,-19.25"/>
<text text-anchor="middle" x="163.25" y="-5.75" font-family="Helvetica,sans-Serif" font-size="10.00">unordered_map</text>
</a>
</g>
</g>
<!-- Node2&#45;&gt;Node6 -->
<g id="edge5_Node000002_Node000006" class="edge">
<title>Node2&#45;&gt;Node6</title>
<g id="a_edge5_Node000002_Node000006"><a xlink:title=" ">
<path fill="none" stroke="#63b8ff" d="M163.25,-55.08C163.25,-48.57 163.25,-39.42 163.25,-31.12"/>
<polygon fill="#63b8ff" stroke="#63b8ff" points="166.75,-31.12 163.25,-21.12 159.75,-31.12 166.75,-31.12"/>
</a>
</g>
</g>
<!-- Node7 -->
<g id="Node000007" class="node">
<title>Node7</title>
<g id="a_Node000007"><a xlink:title=" ">
<polygon fill="#e0e0e0" stroke="#999999" points="265.75,-19.25 222.75,-19.25 222.75,0 265.75,0 265.75,-19.25"/>
<text text-anchor="middle" x="244.25" y="-5.75" font-family="Helvetica,sans-Serif" font-size="10.00">vector</text>
</a>
</g>
</g>
<!-- Node2&#45;&gt;Node7 -->
<g id="edge6_Node000002_Node000007" class="edge">
<title>Node2&#45;&gt;Node7</title>
<g id="a_edge6_Node000002_Node000007"><a xlink:title=" ">
<path fill="none" stroke="#63b8ff" d="M176.99,-54.84C188.98,-46.96 206.62,-35.36 220.83,-26.02"/>
<polygon fill="#63b8ff" stroke="#63b8ff" points="222.74,-28.95 229.18,-20.53 218.9,-23.1 222.74,-28.95"/>
</a>
</g>
</g>
<!-- Node8&#45;&gt;Node5 -->
<g id="edge8_Node000008_Node000005" class="edge">
<title>Node8&#45;&gt;Node5</title>
<g id="a_edge8_Node000008_Node000005"><a xlink:title=" ">
<path fill="none" stroke="#63b8ff" d="M246.12,-54.84C256.34,-47.07 271.32,-35.67 283.51,-26.4"/>
<polygon fill="#63b8ff" stroke="#63b8ff" points="285.51,-29.28 291.35,-20.44 281.27,-23.71 285.51,-29.28"/>
</a>
</g>
</g>
</g>
</svg>
