<?xml version="1.0" encoding="UTF-8" standalone="no"?>
<!DOCTYPE svg PUBLIC "-//W3C//DTD SVG 1.1//EN"
 "http://www.w3.org/Graphics/SVG/1.1/DTD/svg11.dtd">
<!-- Generated by graphviz version 12.2.1 (20241206.2353)
 -->
<!-- Title: include/table.h Pages: 1 -->
<svg width="186pt" height="83pt"
 viewBox="0.00 0.00 185.75 82.50" xmlns="http://www.w3.org/2000/svg" xmlns:xlink="http://www.w3.org/1999/xlink">
<g id="graph0" class="graph" transform="scale(1 1) rotate(0) translate(4 78.5)">
<title>include/table.h</title>
<!-- Node1 -->
<g id="Node000001" class="node">
<title>Node1</title>
<g id="a_Node000001"><a xlink:title=" ">
<polygon fill="#999999" stroke="#666666" points="132.12,-74.5 53.88,-74.5 53.88,-55.25 132.12,-55.25 132.12,-74.5"/>
<text text-anchor="middle" x="93" y="-61" font-family="Helvetica,sans-Serif" font-size="10.00">include/table.h</text>
</a>
</g>
</g>
<!-- Node2 -->
<g id="Node000002" class="node">
<title>Node2</title>
<g id="a_Node000002"><a xlink:href="html2md_8cpp.html" target="_top" xlink:title=" ">
<polygon fill="white" stroke="#666666" points="88,-19.25 0,-19.25 0,0 88,0 88,-19.25"/>
<text text-anchor="middle" x="44" y="-5.75" font-family="Helvetica,sans-Serif" font-size="10.00">src/html2md.cpp</text>
</a>
</g>
</g>
<!-- Node1&#45;&gt;Node2 -->
<g id="edge1_Node000001_Node000002" class="edge">
<title>Node1&#45;&gt;Node2</title>
<g id="a_edge1_Node000001_Node000002"><a xlink:title=" ">
<path fill="none" stroke="#63b8ff" d="M77.28,-46.79C68.96,-37.75 59.09,-27.02 52.27,-19.61"/>
<polygon fill="#63b8ff" stroke="#63b8ff" points="74.54,-48.98 83.88,-53.97 79.69,-44.24 74.54,-48.98"/>
</a>
</g>
</g>
<!-- Node3 -->
<g id="Node000003" class="node">
<title>Node3</title>
<g id="a_Node000003"><a xlink:href="table_8cpp.html" target="_top" xlink:title=" ">
<polygon fill="white" stroke="#666666" points="177.75,-19.25 106.25,-19.25 106.25,0 177.75,0 177.75,-19.25"/>
<text text-anchor="middle" x="142" y="-5.75" font-family="Helvetica,sans-Serif" font-size="10.00">src/table.cpp</text>
</a>
</g>
</g>
<!-- Node1&#45;&gt;Node3 -->
<g id="edge2_Node000001_Node000003" class="edge">
<title>Node1&#45;&gt;Node3</title>
<g id="a_edge2_Node000001_Node000003"><a xlink:title=" ">
<path fill="none" stroke="#63b8ff" d="M108.72,-46.79C117.04,-37.75 126.91,-27.02 133.73,-19.61"/>
<polygon fill="#63b8ff" stroke="#63b8ff" points="106.31,-44.24 102.12,-53.97 111.46,-48.98 106.31,-44.24"/>
</a>
</g>
</g>
</g>
</svg>
