<?xml version="1.0" encoding="UTF-8" standalone="no"?>
<!DOCTYPE svg PUBLIC "-//W3C//DTD SVG 1.1//EN"
 "http://www.w3.org/Graphics/SVG/1.1/DTD/svg11.dtd">
<!-- Generated by graphviz version 8.1.0 (20230707.0739)
 -->
<!-- Title: src/table.cpp Pages: 1 -->
<svg width="322pt" height="138pt"
 viewBox="0.00 0.00 321.75 137.75" xmlns="http://www.w3.org/2000/svg" xmlns:xlink="http://www.w3.org/1999/xlink">
<g id="graph0" class="graph" transform="scale(1 1) rotate(0) translate(4 133.75)">
<title>src/table.cpp</title>
<!-- Node1 -->
<g id="Node000001" class="node">
<title>Node1</title>
<g id="a_Node000001"><a xlink:title=" ">
<polygon fill="#999999" stroke="#666666" points="193,-129.75 121.5,-129.75 121.5,-110.5 193,-110.5 193,-129.75"/>
<text text-anchor="middle" x="157.25" y="-116.25" font-family="Helvetica,sans-Serif" font-size="10.00">src/table.cpp</text>
</a>
</g>
</g>
<!-- Node2 -->
<g id="Node000002" class="node">
<title>Node2</title>
<g id="a_Node000002"><a xlink:href="table_8h.html" target="_top" xlink:title=" ">
<polygon fill="white" stroke="#666666" points="44.5,-74.5 0,-74.5 0,-55.25 44.5,-55.25 44.5,-74.5"/>
<text text-anchor="middle" x="22.25" y="-61" font-family="Helvetica,sans-Serif" font-size="10.00">table.h</text>
</a>
</g>
</g>
<!-- Node1&#45;&gt;Node2 -->
<g id="edge1_Node000001_Node000002" class="edge">
<title>Node1&#45;&gt;Node2</title>
<g id="a_edge1_Node000001_Node000002"><a xlink:title=" ">
<path fill="none" stroke="#63b8ff" d="M134.35,-110.09C112.5,-101.47 79.35,-88.4 54.77,-78.7"/>
<polygon fill="#63b8ff" stroke="#63b8ff" points="56.4,-75.19 45.81,-74.77 53.83,-81.7 56.4,-75.19"/>
</a>
</g>
</g>
<!-- Node4 -->
<g id="Node000004" class="node">
<title>Node4</title>
<g id="a_Node000004"><a xlink:title=" ">
<polygon fill="#e0e0e0" stroke="#999999" points="112.12,-74.5 62.38,-74.5 62.38,-55.25 112.12,-55.25 112.12,-74.5"/>
<text text-anchor="middle" x="87.25" y="-61" font-family="Helvetica,sans-Serif" font-size="10.00">iomanip</text>
</a>
</g>
</g>
<!-- Node1&#45;&gt;Node4 -->
<g id="edge3_Node000001_Node000004" class="edge">
<title>Node1&#45;&gt;Node4</title>
<g id="a_edge3_Node000001_Node000004"><a xlink:title=" ">
<path fill="none" stroke="#63b8ff" d="M145.38,-110.09C135.06,-102.24 119.88,-90.7 107.62,-81.37"/>
<polygon fill="#63b8ff" stroke="#63b8ff" points="110.03,-78.04 99.95,-74.77 105.79,-83.61 110.03,-78.04"/>
</a>
</g>
</g>
<!-- Node5 -->
<g id="Node000005" class="node">
<title>Node5</title>
<g id="a_Node000005"><a xlink:title=" ">
<polygon fill="#e0e0e0" stroke="#999999" points="184,-74.5 130.5,-74.5 130.5,-55.25 184,-55.25 184,-74.5"/>
<text text-anchor="middle" x="157.25" y="-61" font-family="Helvetica,sans-Serif" font-size="10.00">iostream</text>
</a>
</g>
</g>
<!-- Node1&#45;&gt;Node5 -->
<g id="edge4_Node000001_Node000005" class="edge">
<title>Node1&#45;&gt;Node5</title>
<g id="a_edge4_Node000001_Node000005"><a xlink:title=" ">
<path fill="none" stroke="#63b8ff" d="M157.25,-110.33C157.25,-103.67 157.25,-94.24 157.25,-85.78"/>
<polygon fill="#63b8ff" stroke="#63b8ff" points="160.75,-85.86 157.25,-75.86 153.75,-85.86 160.75,-85.86"/>
</a>
</g>
</g>
<!-- Node6 -->
<g id="Node000006" class="node">
<title>Node6</title>
<g id="a_Node000006"><a xlink:title=" ">
<polygon fill="#e0e0e0" stroke="#999999" points="252.88,-74.5 201.62,-74.5 201.62,-55.25 252.88,-55.25 252.88,-74.5"/>
<text text-anchor="middle" x="227.25" y="-61" font-family="Helvetica,sans-Serif" font-size="10.00">sstream</text>
</a>
</g>
</g>
<!-- Node1&#45;&gt;Node6 -->
<g id="edge5_Node000001_Node000006" class="edge">
<title>Node1&#45;&gt;Node6</title>
<g id="a_edge5_Node000001_Node000006"><a xlink:title=" ">
<path fill="none" stroke="#63b8ff" d="M169.12,-110.09C179.44,-102.24 194.62,-90.7 206.88,-81.37"/>
<polygon fill="#63b8ff" stroke="#63b8ff" points="208.71,-83.61 214.55,-74.77 204.47,-78.04 208.71,-83.61"/>
</a>
</g>
</g>
<!-- Node7 -->
<g id="Node000007" class="node">
<title>Node7</title>
<g id="a_Node000007"><a xlink:title=" ">
<polygon fill="#e0e0e0" stroke="#999999" points="313.75,-74.5 270.75,-74.5 270.75,-55.25 313.75,-55.25 313.75,-74.5"/>
<text text-anchor="middle" x="292.25" y="-61" font-family="Helvetica,sans-Serif" font-size="10.00">vector</text>
</a>
</g>
</g>
<!-- Node1&#45;&gt;Node7 -->
<g id="edge6_Node000001_Node000007" class="edge">
<title>Node1&#45;&gt;Node7</title>
<g id="a_edge6_Node000001_Node000007"><a xlink:title=" ">
<path fill="none" stroke="#63b8ff" d="M180.15,-110.09C202.27,-101.37 235.95,-88.08 260.62,-78.35"/>
<polygon fill="#63b8ff" stroke="#63b8ff" points="261.56,-81.35 269.58,-74.42 258.99,-74.84 261.56,-81.35"/>
</a>
</g>
</g>
<!-- Node3 -->
<g id="Node000003" class="node">
<title>Node3</title>
<g id="a_Node000003"><a xlink:title=" ">
<polygon fill="#e0e0e0" stroke="#999999" points="42.25,-19.25 2.25,-19.25 2.25,0 42.25,0 42.25,-19.25"/>
<text text-anchor="middle" x="22.25" y="-5.75" font-family="Helvetica,sans-Serif" font-size="10.00">string</text>
</a>
</g>
</g>
<!-- Node2&#45;&gt;Node3 -->
<g id="edge2_Node000002_Node000003" class="edge">
<title>Node2&#45;&gt;Node3</title>
<g id="a_edge2_Node000002_Node000003"><a xlink:title=" ">
<path fill="none" stroke="#63b8ff" d="M22.25,-55.08C22.25,-48.42 22.25,-38.99 22.25,-30.53"/>
<polygon fill="#63b8ff" stroke="#63b8ff" points="25.75,-30.61 22.25,-20.61 18.75,-30.61 25.75,-30.61"/>
</a>
</g>
</g>
</g>
</svg>
